<svg width="1024" height="320" version="1.1" viewBox="0 0 1024 320" xmlns="http://www.w3.org/2000/svg">
<g>
<rect x="366.16" y="37.428" width="204" height="204" rx="8.64" ry="8.64" fill="#fff" stroke="#fff" stroke-linecap="round" stroke-linejoin="round" stroke-width="16" style="paint-order:stroke fill markers"/>
<rect x="197.4" y="57.343" width="204" height="204" rx="8.64" ry="8.64" fill="#fff" stroke="#fff" stroke-linecap="round" stroke-linejoin="round" stroke-width="16" style="paint-order:stroke fill markers"/>
<rect x="532.09" y="47.181" width="204" height="204" rx="8.64" ry="8.64" fill="#fff" stroke="#fff" stroke-linecap="round" stroke-linejoin="round" stroke-width="16" style="paint-order:stroke fill markers"/>
<rect x="690.67" y="10" width="204" height="204" rx="8.64" ry="8.64" fill="#fff" stroke="#fff" stroke-linecap="round" stroke-linejoin="round" stroke-width="16" style="paint-order:stroke fill markers"/>
<rect x="13.397" y="17.343" width="204" height="204" rx="8.64" ry="8.64" fill="#fff" stroke="#fff" stroke-linecap="round" stroke-linejoin="round" stroke-width="16" style="paint-order:stroke fill markers"/>
<rect x="366.16" y="37.428" width="204" height="204" rx="8.64" ry="8.64" fill="#7c8185" style="paint-order:stroke fill markers"/>
<rect x="197.4" y="57.343" width="204" height="204" rx="8.64" ry="8.64" fill="#fcc946" style="paint-order:stroke fill markers"/>
<g dominant-baseline="auto" stroke-linecap="round" stroke-linejoin="round" stroke-width="4" style="font-feature-settings:normal;font-variant-alternates:normal;font-variant-caps:normal;font-variant-ligatures:normal;font-variant-numeric:normal;font-variant-position:normal;paint-order:stroke fill markers;shape-padding:0;text-decoration-color:#000000;text-decoration-line:none;text-decoration-style:solid;text-indent:0;text-orientation:mixed;text-transform:none;white-space:normal" aria-label="ð‘¦">
<path d="m287.88 159.99c0.288 23.04 0.432 34.704 0.72 34.992 0.144 0.288 3.744 0.432 10.656 0.432h1.008c6.192 0 9.504-0.144 9.792-0.576 0.144-0.576 0.432-12.384 0.864-35.568 0.288-14.976 0.432-25.2 0.432-30.672-0.144-2.88-0.144-4.32-0.144-4.464-0.432-0.288-4.32-0.576-11.664-0.72-1.152 0-2.304-0.144-3.312-0.144-5.184 0.144-8.064 0.432-8.496 0.864-0.144 0.576-0.288 4.176-0.288 10.944 0.144 5.904 0.288 14.256 0.432 24.912z"/>
</g>
<rect x="532.09" y="47.181" width="204" height="204" rx="8.64" ry="8.64" fill="#7be695" style="paint-order:stroke fill markers"/>
<rect x="690.67" y="10" width="204" height="204" rx="8.64" ry="8.64" fill="#fcc946" style="paint-order:stroke fill markers"/>
<g dominant-baseline="auto" stroke-linecap="round" stroke-linejoin="round" stroke-width="4" style="font-feature-settings:normal;font-variant-alternates:normal;font-variant-caps:normal;font-variant-ligatures:normal;font-variant-numeric:normal;font-variant-position:normal;paint-order:stroke fill markers;shape-padding:0;text-decoration-color:#000000;text-decoration-line:none;text-decoration-style:solid;text-indent:0;text-orientation:mixed;text-transform:none;white-space:normal" aria-label="o">
<path d="m810.53 112.71c0 10.08-5.328 16.128-15.408 15.84-6.768-0.144-13.248-5.616-13.248-15.696 0-9.36 5.04-15.84 15.264-15.552 6.768 0.288 13.392 3.888 13.392 15.408zm-14.544-37.296c-22.464 0-36.288 17.712-36.288 35.712 0 23.472 16.128 37.584 36.576 37.584 23.04-0.432 36.432-17.136 36.432-35.712 0-23.76-16.272-37.584-36.72-37.584z"/>
</g>
<rect x="13.397" y="17.343" width="204" height="204" rx="8.64" ry="8.64" fill="#7be695" style="paint-order:stroke fill markers"/>
<g dominant-baseline="auto" stroke-linecap="round" stroke-linejoin="round" stroke-width="4" style="font-feature-settings:normal;font-variant-alternates:normal;font-variant-caps:normal;font-variant-ligatures:normal;font-variant-numeric:normal;font-variant-position:normal;paint-order:stroke fill markers;shape-padding:0;text-decoration-color:#000000;text-decoration-line:none;text-decoration-style:solid;text-indent:0;text-orientation:mixed;text-transform:none;white-space:normal" aria-label="ð‘–">
<path d="m121.62 47.329c1.008 0 3.456 1.584 7.2 4.752 4.608 3.888 7.344 6.768 7.92 8.64l-0.432 0.432c-6.48 4.608-12.384 10.944-17.712 19.008-8.064 12.384-12.096 25.344-12.096 38.592 0 1.584 0.144 3.168 0.288 4.752 1.152 7.488 5.472 11.376 12.672 11.376 2.592 0 5.472-1.296 8.64-3.6 3.024-2.304 5.472-4.896 7.344-7.632 1.584 0.864 3.888 3.024 6.768 6.624 4.032 4.896 6.048 8.64 6.048 11.232-1.44 2.448-3.168 4.752-5.184 6.912-6.048 5.76-13.392 8.784-22.032 8.784-12.816 0-22.608-4.176-29.376-12.528-5.76-7.2-8.64-16.56-8.64-27.792 0-9.36 2.16-19.008 6.336-29.088 4.608-11.088 10.8-20.88 18.576-29.52 5.472-6.192 10.08-9.792 13.68-10.944z"/>
</g>
<g dominant-baseline="auto" stroke-linecap="round" stroke-linejoin="round" stroke-width="4" style="font-feature-settings:normal;font-variant-alternates:normal;font-variant-caps:normal;font-variant-ligatures:normal;font-variant-numeric:normal;font-variant-position:normal;paint-order:stroke fill markers;shape-padding:0;text-decoration-color:#000000;text-decoration-line:none;text-decoration-style:solid;text-indent:0;text-orientation:mixed;text-transform:none;white-space:normal" aria-label="ð‘™">
<path d="m469.84 66.838c8.064 0 14.832 2.16 20.592 6.48 8.064 6.48 12.384 16.56 12.672 30.384 0.288 15.408-5.904 29.808-18.288 43.344 2.16 3.168 5.184 7.2 9.072 12.096 5.472 6.912 8.352 10.656 8.352 11.232 0 0.432-2.16 1.296-6.768 2.592-7.488 2.304-12.096 3.6-14.112 3.888-0.144 0-0.432-0.144-1.008-0.72s-1.152-1.152-1.872-2.016-1.584-1.728-2.448-2.88-1.872-2.304-2.88-3.456c-0.864-1.152-1.872-2.304-2.88-3.6-0.864-1.296-1.728-2.448-2.592-3.6-1.152 1.872-2.592 3.888-4.32 5.904-5.04 6.624-7.776 9.792-8.208 9.792-0.144 0-0.864-0.144-2.016-0.432s-2.448-0.576-4.176-1.008c-1.584-0.288-3.312-0.72-5.184-1.296-1.872-0.432-3.6-0.864-5.184-1.296-1.44-0.432-2.736-0.864-3.888-1.296-1.008-0.288-1.584-0.576-1.584-0.72 0.576-1.152 4.752-6.336 12.24-15.408 2.88-3.168 4.896-5.76 6.192-7.488-2.16-3.024-4.32-6.48-6.336-10.368-6.624-12.384-10.08-23.472-10.08-33.264 0-9.504 2.016-17.28 6.048-23.472 6.048-8.928 15.552-13.392 28.656-13.392zm-1.728 23.76c-1.872 0-3.6 0.576-5.04 1.584-3.456 2.304-5.328 6.624-5.328 12.672 0 2.736 0.72 6.336 2.16 10.8 2.304 7.2 5.04 12.816 8.208 16.848 2.16-2.448 4.176-5.472 6.048-9.216 3.456-6.48 5.04-12.24 5.04-17.28 0-1.728-0.144-3.312-0.432-4.896-1.152-6.912-4.608-10.512-10.656-10.512z"/>
</g>
<g dominant-baseline="auto" stroke-linecap="round" stroke-linejoin="round" stroke-width="4" style="font-feature-settings:normal;font-variant-alternates:normal;font-variant-caps:normal;font-variant-ligatures:normal;font-variant-numeric:normal;font-variant-position:normal;paint-order:stroke fill markers;shape-padding:0;text-decoration-color:#000000;text-decoration-line:none;text-decoration-style:solid;text-indent:0;text-orientation:mixed;text-transform:none;white-space:normal" aria-label="ð‘œ">
<path d="m602.35 126.99c0.288 1.728 1.728 5.04 4.32 9.792 2.88 5.76 4.752 8.496 5.328 8.496h0.144s0.144 0 0.288-0.144l0.432-0.432c0.144-0.144 0.288-0.288 0.432-0.288l0.432-0.432c0.864-0.864 1.728-1.728 2.592-2.448 0.864-0.576 2.016-1.44 3.744-2.592 1.728-1.008 3.456-1.728 5.472-2.304s4.176-0.864 6.48-0.864c3.168 0 5.616 0.576 7.488 1.584 4.32 2.448 6.624 7.488 6.624 14.976-0.144 4.608-1.296 8.352-3.6 11.376-2.592 3.168-6.048 4.752-10.368 4.752-2.448 0-4.608-0.432-6.624-1.008-1.584-0.288-4.032-1.44-7.488-3.168l-12.24 7.2v9.216c0.288 25.632 0.864 39.456 1.44 41.76 0.432 0.288 2.304 0.288 5.616 0.288 8.496 0.144 13.392 0 14.688-0.432 0.288-1.44 0.432-9.072 0.432-22.752 0-7.2 0.144-12.096 0.144-14.688 0.144 0.288 0.432 0.432 0.72 0.432 2.88 1.584 6.768 2.304 11.952 2.304 6.048 0 12.384-2.592 18.864-8.064 6.624-5.472 10.08-14.976 10.08-28.224-0.144-9.792-2.592-17.856-7.488-23.904-7.2-8.928-16.848-13.392-28.8-13.392-8.928 0.144-16.992 2.448-24.048 6.768-3.6 2.304-5.904 4.32-7.056 6.192z"/>
</g>
<rect x="915.97" y="210.92" width="96" height="96" rx="8.64" ry="8.64" fill="#fff" stroke="#fff" stroke-linecap="round" stroke-linejoin="round" stroke-width="16" style="paint-order:stroke fill markers"/>
<rect x="835.97" y="190.92" width="96" height="96" rx="8.64" ry="8.64" fill="#fff" stroke="#fff" stroke-linecap="round" stroke-linejoin="round" stroke-width="16" style="paint-order:stroke fill markers"/>
<rect x="755.97" y="204.92" width="96" height="96" rx="8.64" ry="8.64" fill="#fff" stroke="#fff" stroke-linecap="round" stroke-linejoin="round" stroke-width="16" style="paint-order:stroke fill markers"/>
<rect x="915.97" y="210.92" width="96" height="96" rx="8.64" ry="8.64" fill="#e59cb9" style="paint-order:stroke fill markers"/>
<rect x="755.97" y="204.92" width="96" height="96" rx="8.64" ry="8.64" fill="#e59cb9" style="paint-order:stroke fill markers"/>
<rect x="835.97" y="190.92" width="96" height="96" rx="8.64" ry="8.64" fill="#eaafc6" style="paint-order:stroke fill markers"/>
<g dominant-baseline="auto" stroke-linecap="round" stroke-linejoin="round" style="font-feature-settings:normal;font-variant-alternates:normal;font-variant-caps:normal;font-variant-ligatures:normal;font-variant-numeric:normal;font-variant-position:normal;paint-order:stroke fill markers;shape-padding:0;text-decoration-color:#000000;text-decoration-line:none;text-decoration-style:solid;text-indent:0;text-orientation:mixed;text-transform:none;white-space:normal" aria-label="ð‘²">
<path d="m881.38 223.42h3.744c8.784 0.144 13.608 0.36 14.4 0.72v0.072c0 0.144 0.072 0.288 0.072 0.432 0.36 3.24 0.576 7.056 0.648 11.448 0 6.048-0.792 10.872-2.376 14.544-2.592 5.904-7.416 8.784-14.616 8.784-4.248 0-7.992-0.792-11.16-2.448-1.872-0.864-3.096-1.8-3.528-2.736 0.144-0.432 0.288-1.008 0.576-1.656 1.008-2.592 2.016-4.608 3.024-6.048 0 0 0.216 0.072 0.504 0.216 0.288 0.216 0.648 0.504 1.224 0.792s1.152 0.648 1.872 0.936c0.72 0.36 1.584 0.648 2.664 0.864 1.08 0.288 2.16 0.36 3.312 0.36 2.736 0 4.68-1.08 5.904-3.168 1.152-2.376 1.584-6.984 1.296-13.824-11.664 0.936-17.784 1.008-18.216 0.216-0.216-0.288-0.36-1.368-0.432-3.24-0.288-3.312-0.144-5.256 0.36-5.76 0.36-0.288 3.96-0.504 10.728-0.504z" stroke-width="2.9324"/>
</g>
<g dominant-baseline="auto" stroke-linecap="round" stroke-linejoin="round" style="font-feature-settings:normal;font-variant-alternates:normal;font-variant-caps:normal;font-variant-ligatures:normal;font-variant-numeric:normal;font-variant-position:normal;paint-order:stroke fill markers;shape-padding:0;text-decoration-color:#000000;text-decoration-line:none;text-decoration-style:solid;text-indent:0;text-orientation:mixed;text-transform:none;white-space:normal" aria-label="ð‘‘">
<path d="m974.22 276.84c-0.216 0.072-1.152 0.144-2.88 0.288-5.256 0.288-7.992 0.216-8.208-0.216-0.072-0.288-0.072-1.08-0.072-2.376v-4.968c0-2.016 0-4.176 0.072-6.552 0-2.304 0.072-4.824 0.072-7.56s0.072-5.256 0.144-7.56c0-2.304 0.072-4.68 0.144-7.056 0-2.304 0.072-4.104 0.072-5.4l-2.16 1.08c-1.44 0.72-2.88 1.44-4.392 2.16s-2.376 1.008-2.592 0.936c-0.288 0-0.72-1.152-1.368-3.456-1.008-3.168-1.368-4.896-1.224-5.112 0.432-0.504 2.736-1.8 6.84-3.816 5.184-2.52 8.352-3.96 9.504-4.32 0.216 0 0.504 0.072 0.792 0.072 3.168 0.576 5.04 1.08 5.616 1.656l-0.072 12.456c0 8.352-0.072 16.848-0.072 25.56-0.072 8.712-0.144 13.464-0.216 14.184z" stroke-width="2.9324"/>
</g>
<g dominant-baseline="auto" stroke-linecap="round" stroke-linejoin="round" style="font-feature-settings:normal;font-variant-alternates:normal;font-variant-caps:normal;font-variant-ligatures:normal;font-variant-numeric:normal;font-variant-position:normal;paint-order:stroke fill markers;shape-padding:0;text-decoration-color:#000000;text-decoration-line:none;text-decoration-style:solid;text-indent:0;text-orientation:mixed;text-transform:none;white-space:normal" aria-label="ð‘¤">
<path d="m789.16 253.28c0 1.872 0.216 3.744 0.648 5.472s1.08 3.456 2.088 5.04c0.936 1.656 2.16 3.096 3.6 4.32s3.168 2.16 5.328 2.88 4.536 1.08 7.2 1.08 5.184-0.504 7.488-1.656c2.304-1.08 3.888-2.448 4.896-4.032-0.72-1.44-1.512-3.024-2.448-4.68-0.864-1.512-1.512-2.304-1.8-2.304h-0.072c-0.144 0-0.432 0.144-0.864 0.432s-0.864 0.504-1.296 0.72-1.008 0.432-1.584 0.648c-0.648 0.288-1.296 0.432-1.944 0.576-0.72 0.144-1.368 0.216-1.944 0.216-0.72 0-1.44 0-2.088-0.144s-1.368-0.36-2.088-0.72-1.368-0.792-1.872-1.368c-0.576-0.576-1.008-1.368-1.368-2.376s-0.504-2.232-0.504-3.528c0-2.736 0.72-4.824 2.16-6.264s3.528-2.16 6.12-2.16c1.152 0 2.448 0.288 3.816 0.864 1.296 0.576 2.376 1.08 3.24 1.584 0.792 0.504 1.224 0.72 1.368 0.72 0.576-0.144 1.224-1.656 2.088-4.464 0.648-2.304 1.008-3.888 1.008-4.68v-0.36c-0.144-0.288-0.648-0.72-1.584-1.296-1.008-0.576-2.448-1.08-4.464-1.656s-4.176-0.864-6.48-0.864c-2.808 0-5.4 0.504-7.776 1.512-2.448 1.008-4.392 2.376-5.976 4.104s-2.736 3.6-3.6 5.76-1.296 4.392-1.296 6.624z" stroke-width="2.9324"/>
</g>
</g>
</svg>
