<svg width="1024" height="1024" version="1.1" viewBox="0 0 1024 1024" xmlns="http://www.w3.org/2000/svg" xmlns:xlink="http://www.w3.org/1999/xlink">
<image width="1024" height="1024" image-rendering="optimizeSpeed" preserveAspectRatio="none" xlink:href="file:///D:/Downloads/Koikatsu/UserData/Overlays/gear.png"/>
<path d="m463.4 945.82c-8.3248-0.94991-15.803-2.4003-16.618-3.223-2.1176-2.1369-9.2818-52.667-9.5633-67.45-0.34839-18.302-1.8504-23.348-7.431-24.968-41.76-12.118-62.943-20.443-88.358-34.724-7.065-3.97-13.604-7.2181-14.532-7.2181-0.92771 0-7.6212 5.2576-14.874 11.683-22.276 19.736-52.87 41.844-57.902 41.844-6.8836 0-22.992-12.932-51.016-40.956-28.024-28.024-40.956-44.133-40.956-51.016 0-5.0327 22.109-35.626 41.844-57.902 6.4259-7.2532 11.683-14.159 11.683-15.346 0-1.1872-1.244-3.9346-2.7644-6.1054-10.896-15.556-31.38-65.034-37.304-90.106-1.3051-5.5233-3.1766-10.539-4.1589-11.146-0.98232-0.60709-13.155-1.938-27.05-2.9576-13.895-1.0196-33.834-3.3161-44.308-5.1033l-19.044-3.2495-1.8575-7.6468c-2.4166-9.9485-2.4166-106.67 0-116.61l1.8575-7.6468 19.044-3.2495c10.474-1.7872 30.413-4.0837 44.308-5.1033 13.895-1.0196 26.067-2.3506 27.05-2.9576 0.98231-0.6071 2.8538-5.6229 4.1589-11.146 5.9242-25.072 26.408-74.549 37.304-90.106 1.5204-2.1707 2.7644-4.9181 2.7644-6.1054s-5.2575-8.093-11.683-15.346c-19.736-22.276-41.844-52.87-41.844-57.902 0-6.8836 12.932-22.992 40.956-51.016 28.024-28.024 44.133-40.956 51.016-40.956 5.0327 0 35.626 22.109 57.902 41.844 7.2532 6.4259 14.159 11.683 15.346 11.683s3.9346-1.244 6.1054-2.7644c15.556-10.896 65.034-31.38 90.106-37.304 5.5233-1.3051 10.539-3.1766 11.146-4.1589 0.60708-0.98231 1.938-13.155 2.9576-27.05 1.0196-13.895 3.3161-33.834 5.1034-44.308l3.2495-19.044 7.6468-1.8575c9.9485-2.4166 106.67-2.4166 116.61 0l7.6468 1.8575 3.2495 19.044c1.7872 10.474 4.0837 30.413 5.1034 44.308 1.0196 13.895 2.3506 26.067 2.9576 27.05 0.6071 0.98231 5.6229 2.8538 11.146 4.1589 25.072 5.9242 74.549 26.408 90.106 37.304 2.1707 1.5204 4.9181 2.7644 6.1054 2.7644s8.093-5.2576 15.346-11.683c22.276-19.736 52.87-41.844 57.902-41.844 6.8836 0 22.992 12.932 51.016 40.956 28.024 28.024 40.956 44.133 40.956 51.016 0 5.0327-22.109 35.626-41.844 57.902-6.4259 7.2532-11.683 14.159-11.683 15.346s1.244 3.9346 2.7644 6.1054c10.896 15.556 31.38 65.034 37.304 90.106 1.3051 5.5233 3.1766 10.539 4.1589 11.146 0.98232 0.60708 13.155 1.938 27.05 2.9576 13.895 1.0196 33.834 3.3161 44.308 5.1033l19.044 3.2495 1.8575 7.6468c1.0216 4.2058 1.8575 30.444 1.8575 58.307s-0.83589 54.101-1.8575 58.307l-1.8575 7.6468-19.044 3.2495c-10.474 1.7872-30.413 4.0837-44.308 5.1033-13.895 1.0196-26.067 2.3506-27.05 2.9576-0.98231 0.6071-2.8538 5.6229-4.1589 11.146-5.9242 25.072-26.408 74.549-37.304 90.106-1.5204 2.1707-2.7644 4.9181-2.7644 6.1054 0 1.1872 5.2575 8.093 11.683 15.346 19.736 22.276 41.844 52.87 41.844 57.902 0 6.8836-12.932 22.992-40.956 51.016-28.024 28.024-44.133 40.956-51.016 40.956-5.0327 0-35.626-22.109-57.902-41.844-7.2532-6.4259-14.159-11.683-15.346-11.683s-3.9346 1.244-6.1054 2.7644c-15.556 10.896-65.034 31.38-90.106 37.304-5.5233 1.3051-10.539 3.1766-11.146 4.1589-0.60708 0.98231-1.938 13.155-2.9576 27.05-1.0196 13.895-3.3161 33.837-5.1034 44.315l-3.2495 19.051-6.691 1.5653c-9.9832 2.3354-90.445 3.3604-107.85 1.3739zm78.45-228.42c30.899-5.2663 60.717-17.065 85.321-33.759 6.0458-4.1022 10.992-8.2075 10.992-9.1228 0-0.91532-11.829-11.554-26.286-23.64-14.457-12.087-31.293-27.092-37.413-33.345l-11.127-11.369-12.769 4.9034c-11.434 4.3907-15.468 4.9034-38.577 4.9034-23.109 0-27.143-0.51274-38.577-4.9034l-12.769-4.9034-11.127 11.369c-6.12 6.2528-22.956 21.258-37.413 33.345-14.457 12.087-26.286 22.725-26.286 23.64 0 2.427 19.889 15.529 35.367 23.299 38.25 19.201 81.616 26.239 120.67 19.583zm-168.82-105.6c12.087-14.457 27.092-31.293 33.345-37.413l11.369-11.127-4.9034-12.769c-4.3907-11.434-4.9034-15.468-4.9034-38.577s0.51274-27.143 4.9034-38.577l4.9034-12.769-11.369-11.127c-6.2528-6.12-21.258-22.956-33.345-37.413-12.087-14.457-22.725-26.286-23.64-26.286-2.427 0-15.529 19.889-23.299 35.367-13.271 26.438-22.477 63.629-22.477 90.806s9.206 64.369 22.477 90.806c7.7696 15.478 20.872 35.367 23.299 35.367 0.91533 0 11.554-11.829 23.64-26.286zm310.68 15.294c22.129-32.614 36.653-78.254 36.653-115.18 0-27.177-9.206-64.369-22.477-90.806-7.7696-15.478-20.872-35.367-23.299-35.367-0.91533 0-11.554 11.829-23.64 26.286-12.087 14.457-27.092 31.293-33.345 37.413l-11.369 11.127 4.9034 12.769c4.3907 11.434 4.9034 15.468 4.9034 38.577s-0.51274 27.143-4.9034 38.577l-4.9034 12.769 11.369 11.127c6.2528 6.12 21.258 22.956 33.345 37.413 12.087 14.457 22.725 26.286 23.64 26.286 0.91531 0 5.0206-4.9466 9.1228-10.992zm-171.72-219.23c23.109 0 27.143 0.51274 38.577 4.9034l12.769 4.9034 11.127-11.369c6.12-6.2528 22.956-21.258 37.413-33.345 14.457-12.087 26.286-22.725 26.286-23.64 0-2.427-19.889-15.529-35.367-23.299-26.438-13.271-63.629-22.477-90.806-22.477-27.177 0-64.369 9.206-90.806 22.477-15.478 7.7696-35.367 20.872-35.367 23.299 0 0.91532 11.829 11.554 26.286 23.64 14.457 12.087 31.293 27.092 37.413 33.345l11.127 11.369 12.769-4.9034c11.434-4.3907 15.468-4.9034 38.577-4.9034z" stroke-width="1.9117"/>
</svg>
