<?xml version="1.0" standalone="no"?>
<!DOCTYPE svg PUBLIC "-//W3C//DTD SVG 1.1//EN" "http://www.w3.org/Graphics/SVG/1.1/DTD/svg11.dtd" >
<svg xmlns="http://www.w3.org/2000/svg" xmlns:xlink="http://www.w3.org/1999/xlink" version="1.1" viewBox="-10 0 2058 2048">
   <path fill="currentColor"
d="M754.75 885.223q58.6455 -0.360352 116.549 6.58496q93.2979 11.2979 195.734 79.8799q5.33008 3.57812 10.375 7.00684q127.581 86.7969 171.273 215.535q29.9502 89.4102 31.3164 218.891q2.21484 231.532 -170.325 385.221q-150.551 133.227 -382.025 166.463
q-378.573 53.8486 -491.96 -245.428q144.128 74.6084 366.153 51.124q196.699 -20.8057 328.687 -103.088q101.476 -64.2637 115.27 -140.04q-133.362 57.3887 -370.822 51.5547q-240.059 -5.89844 -386.245 -71.2588q-67.665 -30.8027 -96.7266 -69.0176
q-7.11133 -72.7158 2.98242 -156.916q24.6084 -203.225 211.385 -310.628q147.071 -83.9561 348.38 -85.8838zM383.235 1181.16q-60.9346 0.761719 -71.1016 55.6436q-1.56543 9.47852 -1.64844 18.8779q0 45.2412 38.7695 65.1543q13.1162 6.26758 25.8701 7.05273
q69.916 1.79199 81.375 -54.9688q1.73828 -9.64551 1.8291 -19.2959q0 -63.0566 -55.9385 -71.3252q-5.10645 -0.654297 -9.3877 -0.881836q-5.45996 -0.276367 -9.76758 -0.256836zM853.783 1234.96q-60.9346 0.761719 -71.1025 55.6553q-1.56445 9.47754 -1.64746 18.876
q0 45.2354 38.7666 65.1445q13.1162 6.26758 25.873 7.05273q69.916 1.79199 81.375 -54.9688q1.73828 -9.64551 1.8291 -19.2959q0 -63.0488 -55.9375 -71.3154q-5.10645 -0.654297 -9.38867 -0.881836q-5.5332 -0.28418 -9.76758 -0.266602zM1536 1248
q-11.4434 0.615234 -26.9365 -29.7246q-6.69336 -13.999 -5.06348 -18.2754q101.873 -88.6162 102.415 -188.723q0 -135.962 -102.645 -261.802q-85.04 -103.293 -223.771 -173.476q13.252 219.591 4.7793 656.473q-1.81543 92.8809 -4.7793 183.527l-192.595 -278.824
q-25.1699 -256.58 -34.917 -728.224q-5.07715 -248.983 3.51172 -272.952q16.3916 -18.0586 77.5859 -42.9531q19.582 -7.75293 26.8574 -8.1123q246.567 98.627 456.522 315.634q171.446 177.206 237.083 346.33q28.1279 73.3525 28.3535 129.344q0 120.5 -96.2178 224.303
q-93.8828 100.244 -250.185 147.455z" />
</svg>
