<svg width="2048" height="2048" version="1.1" viewBox="-10 0 2048 2048" xmlns="http://www.w3.org/2000/svg">
<path d="m682.82 821.54q66.18-128.54 190.92-172.16 54.257-19.383 111.48-19.295 179.77-0.0879 287.46 110.25 106.31 110.66 106.94 303.78 0.3721 166.88-117.08 280.34-112.55 109.54-258.56 112.28-12.988 0.2637-24.904 0.7441-156.08-0.4804-311.3-88.064-34.788 36.584-103.78 170.75-49.012 96.834-49.824 122.11 75.812 68.72 226.47 108.68 116.34 30.037 244.57 30.581 312.77 0.4561 516.32-176.72 185.46-160.83 224.44-414.65 10.013-65.178 10.277-131.72-0.2646-315.46-155.99-520.86-169.27-222.6-488.85-250.64-34.42-2.9639-69.328-2.5078-256.09-0.45605-450.96 234.02-60.128 72.529-106.29 157.71zm333.98 226.59q6.5156-2.8105 26.69-196.99 8.2959-80.672 5.4482-84.796-2.1914-2.1914-359.11-62.359-46.856-7.9277-49.56-8.9941-2.4844-1.2959-76.564-348.97-12.424-58.15-13.736-60.248-4.9541-4.9541-156.82 16.473-92.153 13.151-94.996 19.812-4.294 16.963 26.261 440.46 16.231 224.31 21.762 230.94 10.92 10.92 561.36 48.277 107.24 7.2783 109.27 6.4033z" fill="currentColor"/>
</svg>
