<svg width="2048" height="2048" version="1.1" viewBox="-10 0 2048 2048" xmlns="http://www.w3.org/2000/svg">
<path d="m1319.5 1437q17 8 93-80 34-40 35-46 0-3-174-183-103-106-104-111 2-4 154-178 81-93 82-100 0-6-29-37.5t-57-60.5l-30-28-272 274-264-264q-86 60-134 130l278 276-288 308q-4 4 75 67 53 43 61 43 7-2 200-216 67-73 70-74 1 0 229 212 68 62 75 68zm-1110-389q0-212 65-373.5t181-260 267-147.5 332-49q164 0 303.5 53.5t242 155 160.5 258 58 351.5q0 117-28 227.5t-89.5 211-150.5 175.5-220.5 119.5-289.5 44.5q-181 0-335-54.5t-263.5-153.5-171-242.5-61.5-315.5z" fill="currentColor"/>
</svg>
