<?xml version="1.0" standalone="no"?>
<!DOCTYPE svg PUBLIC "-//W3C//DTD SVG 1.1//EN" "http://www.w3.org/Graphics/SVG/1.1/DTD/svg11.dtd" >
<svg xmlns="http://www.w3.org/2000/svg" xmlns:xlink="http://www.w3.org/1999/xlink" version="1.1" viewBox="-10 0 2058 2048">
   <path fill="currentColor"
d="M1536 1248q-11.4434 0.615234 -26.9365 -29.7246q-6.69336 -13.999 -5.06348 -18.2754q101.873 -88.6143 102.415 -188.723q0 -135.962 -102.645 -261.802q-85.04 -103.293 -223.771 -173.476q13.252 219.591 4.7793 656.473q-1.81543 92.8809 -4.7793 183.527
l-192.594 -278.824q-25.1709 -256.577 -34.918 -728.224q-5.07715 -248.983 3.51172 -272.952q16.3916 -18.0586 77.5859 -42.9531q19.582 -7.75293 26.8574 -8.1123q246.567 98.627 456.522 315.634q171.446 177.206 237.083 346.33q28.1279 73.3525 28.3535 129.344
q0 120.5 -96.2178 224.303q-93.8828 100.244 -250.185 147.455zM811.592 944.717q164.588 0 271.124 90.0225q29.0615 24.8291 59.083 58.6992q98.373 111.373 125.075 214.191q12.9922 51.1172 13.1211 105.49q0 208.058 -177.772 337.668
q-155.977 113.721 -387.377 128.804q-30.1387 1.89941 -59.3877 1.93164q-468.404 0 -468.403 -468.403q0 -208.058 177.772 -337.668q155.977 -113.721 387.377 -128.804q30.1387 -1.89941 59.3877 -1.93164zM930.685 1458.66q0 -42.7646 -48.8838 -53.7949
q-12.249 -2.53809 -25.168 -2.78613q-53.0098 -0.623047 -69.3281 36.752q-4.26367 10.8154 -4.46387 21.8965q0 45.2344 38.7666 65.1445q13.1162 6.26758 25.873 7.05273q69.916 1.79199 81.376 -54.9688q1.7373 -9.64551 1.82812 -19.2959zM453.752 1460.2
q0 -41.667 -47.3574 -53.377q-12.915 -2.94238 -26.6943 -3.20898q-47.1582 -0.548828 -67.0391 34.2979q-6.47363 12.3457 -6.75293 24.3457q0 45.2412 38.7705 65.1543q13.1152 6.26758 25.8701 7.05273q69.915 1.79199 81.374 -54.9678q1.73828 -9.64648 1.8291 -19.2969
zM455.877 1603.62q-6.29102 0.918945 -18.7754 34.9385q-5.26465 15.3418 -4.08594 21.0674q1.06738 3.81152 129.327 41.3584v1.9541q-125.664 37.6367 -130.442 42.3311q-3.16113 12.1865 20.8164 48.8105q5.08105 7.25586 7.05859 8.50977l175.548 -57.1064
l164.579 52.291q2.55566 0.606445 3.25586 0.575195q7.79785 -0.379883 25.6533 -43.6533q2.58203 -6.63867 2.7832 -8.44531q-1.66895 -2.89453 -129.327 -42.9883v-1.9541q82.0869 -20.79 129.327 -39.7295q0.326172 -0.571289 -0.0917969 -2.42578
q-0.416992 -1.85449 -1.42285 -4.5625q-1.00586 -2.70703 -2.50195 -6.12891q-1.49609 -3.42285 -3.2959 -7.1416t-3.83984 -7.58398q-2.04004 -3.86426 -4.09863 -7.46875q-2.05859 -3.60547 -4.10742 -6.78711q-2.04785 -3.18066 -3.83105 -5.54688
q-1.7832 -2.36523 -3.30469 -3.73828q-1.52148 -1.37207 -2.49512 -1.37207q-12.2432 -0.550781 -164.602 51.0615q-1.5459 0.539062 -2.07227 0.722656q-9.04688 -3.23438 -26.0098 -8.8916t-36.4287 -11.9727t-40.1064 -12.8691q-20.6406 -6.55469 -37.4199 -11.7471
t-27.9658 -8.42773q-11.1875 -3.23535 -12.124 -3.0791z" />
</svg>
