<svg width="2048" height="2048" version="1.1" viewBox="-10 0 2048 2048" xmlns="http://www.w3.org/2000/svg">
<path d="m312.16 111.86q-82.533 0.90234-217.62 61.842-77.272 35.136-101 59.996 1.0644 732.59 246.45 1175.6 67.58 121.48 150.8 214.87-10.97 76.175-7.9619 268.98 1.8682 111.41 10.651 140.13 36.725 11.582 670.61 10.92 557.62-0.6299 593.54-13.719 17.541-53.916-2.8984-332.74-3.5625-48.2-6.2481-70.261 311.6-348.36 372.27-1072.4 12.748-153.1 13.706-319.17-26.635-30.93-143.75-76.987-117.07-46.04-174.13-43.335-29.759 715-176.32 1082.6-21.794 54.362-43.978 94.844-197.45 60.65-518.29 54.844-265.32-5.0098-418.88-52.277-169.49-284.15-220.5-864.57-13.264-151.69-17.63-319-4.8018-0.1709-8.8125-0.15234zm714.23 180.2q-229.14 0-367.24 142.54-125.86 129.9-130.26 328.83-0.13281 6.9531-0.14258 12.932 4.1357 220.6 146.55 355.79 124.03 117.74 302.67 126.05 12.298 0.5254 23.642 0.5479 233.04 0 370.69-145.63 124.97-138.05 126.95-340.57 0-205.97-137.5-342.56-116.52-115.75-281.38-134.8-27.483-3.0625-53.975-3.1191zm148.79 301.56q76.843 0 94.641 63.852 5.4014 20.759 3.9297 45.143-3.0234 68.024-64.338 82.804-14.943 3.3369-31.391 3.4463-78.066 0-94.199-71.195-3.8574-18.235-3.4238-38.748 0.9931-43.681 41.153-69.757 24.602-15.232 53.628-15.544zm-327.41 2.844q78.579 0 94.53 67.692 4.125 18.854 3.0928 40.354-2.9912 65.81-61.804 81.356-15.583 3.8252-32.976 3.9453-75.945 0-92.818-68.846-4.3125-18.807-3.8574-40.15 2.0449-43.964 41.56-69.389 23.93-14.656 52.272-14.963zm174.25 277.68q172.63 0.54004 278.12 88.893-10.182 29.619-52.219 70.993-15.315 14.706-25.621 20.581-74.478-53.265-203.12-53.566-137.77 0.4971-216.26 64.795-32.724-22.156-63.671-69.823-9.3789-14.803-13.698-25.612 112.87-95.882 296.47-96.26z" fill="currentColor"/>
</svg>
